<svg xmlns="http://www.w3.org/2000/svg" viewBox="0 0 512 512" width="512" height="512">
  <rect width="512" height="512" rx="96" fill="#faf4e6"/>
  <g transform="translate(106 106) scale(3)" fill="none" stroke="#3e6b4f" stroke-width="2" stroke-linecap="round">
    <circle cx="50" cy="50" r="44" stroke-width="1.6"/>
    <circle cx="50" cy="50" r="40" stroke-width="1.6"/>
    <path d="M50 70 V40"/>
    <path d="M50 44 C42 40 36 42 34 36 C42 34 48 38 50 44Z" fill="#3e6b4f" fill-opacity=".15"/>
    <path d="M50 40 C58 36 64 38 66 32 C58 30 52 34 50 40Z" fill="#3e6b4f" fill-opacity=".15"/>
    <path d="M50 70 L42 80 M50 70 L58 80 M50 74 L50 82"/>
    <circle cx="44" cy="30" r="2" fill="#b98e3c" stroke="none"/>
    <circle cx="56" cy="27" r="2" fill="#b98e3c" stroke="none"/>
    <circle cx="50" cy="33" r="2" fill="#b98e3c" stroke="none"/>
  </g>
</svg>
